<svg width="32" height="32" viewBox="0 0 32 32" fill="none" xmlns="http://www.w3.org/2000/svg">
<circle cx="16" cy="16" r="16" fill="white"/>
<g clip-path="url(#clip0_102_179)">
<path d="M23.5831 13.8333H22.695L20.8531 8.76334C20.7007 8.34535 20.4237 7.98415 20.0597 7.72845C19.6956 7.47275 19.2618 7.33485 18.8169 7.33334H17.0831C16.4875 7.33334 16 7.82084 16 8.41722C16 9.01278 16.4875 9.50028 17.0831 9.50028H18.8169L20.3981 13.8333H15.1875L14.7975 12.7503H14.895C15.4906 12.7503 15.9781 12.2628 15.9781 11.6672C15.9781 11.0708 15.4906 10.5833 14.895 10.5833H11.6669C11.0706 10.5833 10.5831 11.0708 10.5831 11.6672C10.5831 12.2628 11.0706 12.7503 11.6669 12.7503H12.4794L14.4506 18.1672H13.725C13.2481 15.7508 11.2225 13.9633 8.6875 13.8447C5.65444 13.6928 3 16.2172 3 19.2503C3 22.2833 5.38306 24.6672 8.41694 24.6672C11.0819 24.6672 13.2375 22.8358 13.725 20.3333H18.275C18.7519 22.7497 20.7775 24.5372 23.3125 24.6558C26.3456 24.7972 29 22.2833 29 19.2397C29 16.2172 26.6169 13.8333 23.5831 13.8333ZM9.5 20.3333H11.4719C11.0169 21.6658 9.73806 22.5872 8.2 22.4897C6.58556 22.3922 5.2425 21.0272 5.16694 19.4022C5.09056 17.5058 6.5425 16.0003 8.41694 16.0003C9.08943 15.994 9.74676 16.2 10.2953 16.5891C10.8438 16.9782 11.2556 17.5304 11.4719 18.1672H9.5C8.90444 18.1672 8.41694 18.6547 8.41694 19.2503C8.41694 19.8458 8.90444 20.3333 9.5 20.3333ZM18.275 18.1672H16.7581L15.9675 16.0003H19.25C18.7598 16.6363 18.4258 17.3785 18.275 18.1672ZM23.4531 22.5003C21.785 22.4353 20.3769 21.0158 20.3331 19.3372C20.3119 18.2972 20.7556 17.3872 21.4706 16.7803L22.1425 18.6222C22.1906 18.7562 22.2647 18.8793 22.3605 18.9845C22.4564 19.0897 22.572 19.175 22.7009 19.2354C22.8298 19.2958 22.9693 19.3301 23.1115 19.3364C23.2537 19.3428 23.3957 19.3209 23.5294 19.2722C23.6634 19.2241 23.7865 19.15 23.8917 19.0542C23.9969 18.9583 24.0822 18.8427 24.1426 18.7138C24.203 18.5849 24.2373 18.4454 24.2437 18.3032C24.25 18.161 24.2282 18.019 24.1794 17.8853L23.4969 16.0108L23.5075 16.0003C23.9418 15.9854 24.3747 16.0588 24.7799 16.2159C25.1851 16.373 25.5543 16.6106 25.8651 16.9143C26.1759 17.2181 26.4219 17.5817 26.5883 17.9832C26.7547 18.3847 26.8379 18.8157 26.8331 19.2503C26.8331 21.1133 25.3381 22.5653 23.4531 22.5003Z" fill="url(#paint0_linear_102_179)"/>
</g>
<defs>
<linearGradient id="paint0_linear_102_179" x1="16" y1="4.08308" x2="16" y2="27.917" gradientUnits="userSpaceOnUse">
<stop stop-color="#FFB60D"/>
<stop offset="1" stop-color="#E59317"/>
</linearGradient>
<clipPath id="clip0_102_179">
<rect width="26" height="26" fill="white" transform="translate(3 3)"/>
</clipPath>
</defs>
</svg>
